<svg width="300" height="300" viewBox="0 0 300 300" fill="none" xmlns="http://www.w3.org/2000/svg">
<g clip-path="url(#clip0_31_2)">
<path d="M256.346 117.682L197.31 112.455C192.543 111.096 185.899 106.425 183.09 102.461L158.584 46.6437C156.291 43.4067 152.961 41.55 149.45 41.55C145.938 41.55 142.609 43.4067 140.315 46.6437L117.369 106.579C114.559 110.544 107.914 115.214 103.149 116.574L44.775 117.838C40.8844 118.948 38.0308 121.437 36.9456 124.668C35.8603 127.899 36.6572 131.536 39.1305 134.646L85.5753 169.91C88.6054 173.72 91.1446 181.276 91.0076 186.081L76.2269 248.665C76.1331 251.951 77.2137 254.886 79.2676 256.928C81.146 258.796 83.7466 259.825 86.5895 259.825C88.0319 259.825 89.5183 259.565 91.0076 259.053L142.838 224.649C145.084 223.876 148.286 223.433 151.626 223.433C154.966 223.433 158.168 223.877 160.414 224.649L211.018 259.053C212.507 259.565 213.994 259.825 215.435 259.825C218.278 259.825 220.878 258.796 222.757 256.928C224.811 254.885 225.891 251.95 225.798 248.664L211.554 186.081C211.417 181.276 213.955 173.72 216.986 169.909L261.992 134.489C264.466 131.379 265.262 127.742 264.177 124.511C263.09 121.281 260.237 118.792 256.346 117.682ZM256.024 130.05L211.018 165.47C206.913 170.631 203.842 179.773 204.028 186.282L218.272 248.865C218.309 250.169 217.985 251.229 217.36 251.85C216.569 252.637 215.169 252.752 213.539 252.192L162.935 217.787C159.868 216.732 155.851 216.151 151.625 216.151C147.4 216.151 143.383 216.732 140.315 217.787L88.4851 252.192C86.8561 252.752 85.4546 252.637 84.6633 251.85C84.0391 251.229 83.7145 250.169 83.7521 248.865L98.5329 186.282C98.7182 179.772 95.6472 170.631 91.5421 165.47L45.0973 130.206C44.1467 129.011 43.7947 127.844 44.1058 126.919C44.416 125.994 45.4107 125.249 46.9047 124.824L105.279 123.559C111.734 121.717 119.774 116.067 123.58 110.696L146.527 50.7608C147.407 49.5174 148.446 48.8323 149.451 48.8323C150.457 48.8323 151.495 49.5174 152.376 50.7608L176.881 106.579C180.687 111.95 188.726 117.6 195.183 119.442L254.219 124.668C255.713 125.095 256.707 125.839 257.018 126.763C257.327 127.687 256.975 128.855 256.024 130.05Z" fill="#000"/>
</g>
<defs>
<clipPath id="clip0_31_2">
<rect width="230" height="230" fill="white" transform="translate(35 35)"/>
</clipPath>
</defs>
</svg>
