<svg width="712" height="766" viewBox="0 0 712 766" fill="none" xmlns="http://www.w3.org/2000/svg">
<path d="M107.1 271.1C105.1 272.6 105.7 274.6 105.7 276.2C105.6 294.5 105.5 312.9 105.8 331.2C105.9 339.9 109.3 348.2 110.8 356.8C112.3 366 113.9 375.3 116.8 384.1C120.1 394.2 123.3 404.4 127.9 414C132.3 423.2 137.5 432 142.7 440.7C145.3 445.1 144 449.7 139.3 451.5C135.4 453 131.5 454.6 127.3 455.3C124.1 455.9 122.4 454.7 121.7 451.7C121.3 450 121 448.1 121 446.4C121.1 440.5 120.6 434.7 120.2 428.9C119.9 424.9 118 423.1 114.1 422.4C105.7 421 97.3 421.7 89 422.9C85.6 423.4 82.1 423.4 78.7 423.4C74.9 423.4 73.2 421.6 73.2 417.9C73.3 411.5 75.5 405.5 76.8 399.4C78.1 393.4 80.2 387.6 81.8 381.6C83.5 375 82.5 373.4 76.2 370.8C67.2 367.1 57.6 364.8 48.5 361.4C43 359.4 37.7 356.8 32.6 354.2C29.6 352.7 29.6 349.4 32.2 346.1C34.1 343.6 36.2 341.2 38.4 339C47.5 329.9 56.1 320.3 66.3 312.4C70.5 309.2 70.7 307 67.6 302.5C54 283.4 34.8 273.6 12.4 269.2C8.70001 268.5 5.00002 268.1 1.80002 265.7C-0.399984 264.1 -0.699981 262.8 1.60002 260.8C6.90002 256.1 13.4 253.2 18.9 248.7C29.8 239.8 42.2 232.8 52.9 223.6C54.4 222.3 55.9 221 57.6 220.1C62.2 217.9 62.6 214.2 60.8 210.3C57.8 203.4 54 196.9 49.6 190.9C43.6 182.7 36.8 175.1 29.8 167.7C26.8 164.5 23.8 161.4 20.4 158.7C18.3 157 16.3 155.1 14.7 153C10.6 147.8 11.9 143.7 18.4 143.5C30.6 143.1 42.6 140.8 54.7 140.2C68.9 139.5 83.3 140 97.3 137C103.8 135.6 104.4 135 103.2 128.7C99.4 109.4 94.7 90.3 85.2 72.8C83.5 69.6 80.5 65.8 83.5 62.4C86.1 59.4 90.2 61.4 93.7 62.1C109 65.2 123.6 70.2 137.5 77C141.1 78.8 144.5 81.1 148 83C152.4 85.3 155.2 84.4 157 79.9C164.2 61.9 171 43.8 170.9 23.9C170.9 17 173.1 10.3 174.9 3.6C175.8 0.399997 178.2 -0.200003 180.8 2.1C188.1 8.8 194.2 16.6 200.8 23.9C207.1 31 212.8 38.4 218.4 46C221.9 50.8 225.9 55.3 229 60.5C232.6 66.8 236.1 67.2 240.8 61.6C247 54.1 253.7 47 260.8 40.4C266.5 35.1 273.2 31 279.3 26.1C287.8 19.3 297.8 15 306.8 9.1C309.1 7.6 311.6 6.1 314.3 7.5C317.2 9 316.8 12.1 316.8 14.7C316.8 27.9 316.9 41.2 316.8 54.4C316.7 67.9 320.5 80.8 323.1 93.9C324.3 100 327.5 101.2 333.3 99.2C352 92.5 370.6 85.9 389.3 79.2C391.6 78.4 394.1 77.4 396.1 79.3C398.2 81.3 396.3 83.4 395.5 85.5C393 92.6 387.7 97.9 384.3 104.5C376.3 119.9 367.5 134.9 358.3 149.6C355.6 153.8 356.4 156.1 361.4 156.9C377.2 159.5 393 162.8 409.1 163.9C415 164.3 420.6 166 426.2 167.6C429.6 168.5 430.3 171.5 427.9 173.8C421.8 179.8 416.5 186.7 409.5 191.6C397.4 200.1 387.7 211.2 377.6 221.8C374.5 225 374.9 226.5 379.1 228.3C394.9 234.9 410.6 241.6 426.4 248.3C426.7 248.4 427 248.5 427.2 248.7C434.5 252.3 434.7 255.4 428.3 260.3C419.4 267.1 409.2 271.7 399.2 276.4C386.3 282.5 373 287.6 359.1 291.3C356.9 291.9 354.6 292.8 354.1 295.3C353.6 297.6 355.8 298.5 357.1 299.9C366.7 310.2 379.8 314.8 391.3 322.2C394.4 324.2 398.7 325.9 398.5 330.1C398.3 334.2 393.8 335.5 390.7 337.5C380.9 344 369.5 346.6 358.7 350.6C353.3 352.6 352.3 354.5 353.7 360.1C355.5 367.6 359.5 374.3 361.3 381.7C363.1 388.9 361.3 390.8 354 391.4C347.2 391.9 340.6 393 334.1 395.1C329.5 396.6 328.7 398.9 331.2 402.9C334.5 408.1 337.6 413.3 342 417.8C346.5 422.5 345.6 425.8 339.5 428.3C334.4 430.5 329.1 432.3 323.6 433.2C316.4 434.4 311.5 438.9 307.4 444.4C299.2 455.4 288.9 463.5 275.9 468.1C269.2 470.4 268.9 470.9 269 477.7C269 479.7 269 481.6 269.2 483.6C269.5 487.3 271.4 489.7 275.2 490.6C293.6 494.9 311.6 500.8 329.8 506C332.1 506.7 334.5 507.1 336.9 507.3C346.7 508.1 351.9 514.1 354.5 522.9C358.6 536.7 362.7 550.5 366.4 564.4C368.5 572.2 372.3 579.5 374 587.5C377.3 602.6 382.4 617.2 386.6 632C389.8 643.3 392.5 654.6 395.6 665.9C397.6 673.4 398.5 681.2 401.5 688.5C402.3 690.4 403.3 691.6 405.2 691.9C409.9 692.7 414.4 691.6 419 691C420.8 690.8 421.5 688.8 421.6 687.1C422.3 673.2 428.7 661 434.7 649.1C439 640.4 441.2 630.8 447.2 622.9C450.5 618.5 455.1 617.1 459.5 620.4C461.5 621.9 463.7 621.9 465.8 622.5C474.1 625 483 625.8 491.1 628.7C508.9 635.1 527.5 634.1 545.8 635.7C548.1 635.9 552.4 636.9 552.3 634.1C552.2 630.6 548.3 632.9 546 632.8C539.6 632.4 533 632.6 526.8 630.8C516.6 628 506.2 626.7 495.8 625.1C491.6 624.4 487.6 623.2 484 621C482.2 619.9 480.3 618.8 478.3 618.3C462.2 614.1 448.8 604.5 435.5 595.4C424.1 587.6 415.9 576.1 408.5 564.4C404.2 557.5 402.7 549.7 400.5 542.1C400 540.2 399.9 538.1 398.4 536.7C397.4 535.8 396.1 535 394.7 535.8C393.6 536.4 394.2 537.7 394.3 538.7C394.8 543.1 397.1 546.9 398.6 551C399.5 553.4 400.8 555.9 398.9 558.2C396.9 560.7 393.8 560.6 391.4 559.7C383.9 557 375.2 556.1 371.4 547.5C367.3 538.3 365.1 528.7 366.7 518.7C367.3 514.8 369.6 511.1 372.6 508.3C379.8 501.5 380 500.2 375 491.6C371 484.8 366.9 477.9 363.1 470.9C358.4 462.2 359.1 452.8 361.2 443.7C364.2 430.8 370.5 419 373.1 405.9C373.9 401.7 372.6 397.6 372.9 393.3C374.1 378.8 381.9 367.5 390 356.2C396.9 346.4 404.9 337.5 412.7 328.6C425.2 314.6 438.7 301.5 456.3 293C482.8 280.2 510.5 274.2 539.7 273.7C556.3 273.4 572.8 274.2 588.8 279.1C597.7 281.9 606.3 285.6 614.1 290.6C620 294.3 626.2 297.1 632.9 298.9C637.6 300.1 641.7 302.5 645.3 305.9C660.7 320.6 673.3 337.7 683.8 356C690.5 367.6 698.1 378.9 701.9 392C704.2 399.8 704.2 407.8 704.4 415.7C704.7 427.2 706 438.5 707.7 449.7C709.1 458.5 707.6 467 705.6 475.5C703.8 483.2 702.5 491.1 701.4 499C701 501.7 702 504.3 704 506.4C716.9 519.7 712.3 542.2 696.3 552.3C689.6 556.5 681.7 558.9 676.5 565.3C673.1 569.5 669.4 573.5 666.3 577.9C657.9 589.8 646.5 598.6 635.6 607.9C631.1 611.7 630.2 614.6 633.8 619.5C642.2 630.9 647 644 652.2 657C654.4 662.4 652.9 665.2 649.1 669.5C640.6 679.2 629.1 685.1 619.3 693C617.8 694.2 616.3 695.5 615 697C611.1 701.4 606.6 701.4 601.5 699.4C590 695 580.2 697.2 573.3 706.4C570.6 710 568.9 714.5 566.6 718.8C564.8 716.9 564.9 714.8 564.8 712.7C564.4 706 561.9 703.3 555.3 703.3C538.2 703.2 521 703.2 503.9 703.3C496.2 703.4 492.7 707 492.7 714.9C492.6 724.8 492.7 734.7 492.6 744.7C492.5 751.3 490.8 753.3 484.3 754.1C480.1 754.6 476 755.5 472.3 757.7C466.2 761.4 459.5 760.7 453 759.8C448.1 759.1 445.1 754.9 442.3 751.3C435.4 742.6 429.1 733.4 421.2 725.7C416.1 720.7 410.3 716 405.8 710.7C398.9 702.6 390.7 703.3 382.1 703.3C371.3 703.3 360.5 703.3 349.6 703.3C340.6 703.4 337.6 706.2 337.6 715.2C337.5 729 337.6 742.9 337.6 756.7C337.6 760.2 337.9 764 333.6 765.3C329.2 766.6 326.1 763.9 324.4 760.5C321.4 754.7 317.4 749.7 314.2 744.1C308.4 733.7 298.8 727.2 289.6 720.2C281.8 714.2 272.4 711.6 263.6 708C255.4 704.7 246.4 704.1 237.7 702.5C216.1 698.6 194.9 701.6 173.9 706.5C169.8 707.5 166.3 710 162.1 710.9C158.6 711.7 155.2 711.8 152.1 709.8C140.7 702.3 129 695.6 118.2 687.1C108.6 679.6 99.2 672 89.9 664.2C82.7 658.1 75.7 651.8 68.7 645.5C66.2 643.2 66.3 639.9 67.5 637.6C73.3 626.3 74.6 613.7 78.5 601.9C84.5 583.5 90 564.9 94.8 546.2C96.9 537.9 99.2 529.7 101.7 521.5C103.2 516.3 107.1 513.1 112 511.6C126.6 507.1 140.8 501.1 155.4 496.5C165.4 493.4 175.5 490.5 185.5 487.2C190.1 485.7 193.9 480.9 194.2 476.6C194.5 471.3 191.2 468.8 186.9 466.9C176 462.2 165.2 457.4 155.7 450C149.3 445.1 145.4 438.3 141.5 431.7C131.7 414.9 124.3 397.2 119.3 378.2C114.9 361.4 111.1 344.7 111.2 327.3C111.2 324.8 110.8 322.2 110.2 319.7C106.9 306.7 107 293.5 108.3 280.3C108.5 277.2 109.3 273.9 107.1 271.1ZM530.4 459.3C530.8 449.2 527.8 439.9 523.9 430.9C522.4 427.4 520.2 424 517.2 421.4C513.2 418 511.1 418.4 509.6 423.4C507.4 430.8 502.2 436.1 495.8 438.6C484.1 443.2 472.1 447 459.5 448.7C449.4 450 439.2 450.6 429 450.5C423.3 450.5 420.7 452.9 420.7 458.3C420.8 467.9 422.1 477.3 428.2 485.2C439 499.1 452.2 508.6 470.5 510.3C487.8 511.9 502.8 506.5 515.2 495.3C525.4 486.1 530.8 473.5 530.4 459.3ZM556.5 456.6C556.7 460 556.3 463.7 557.2 466.9C561 480.4 568.9 491.1 580.7 498.7C584.3 501 587.6 504.2 591.9 505.3C606.8 509 621.3 508.7 635.5 502.1C654.4 493.3 665.4 479.1 665.9 457.7C666.1 450.5 665 449.7 657.9 449.6C647.5 449.5 637.2 450.3 626.8 449C616.5 447.6 606.5 444.5 597 440.6C589.4 437.5 581.4 434.1 577.1 425.7C574.3 420.4 572.2 420.4 568.5 425.1C561.2 434.2 555.5 444.2 556.5 456.6ZM213 242.2C212.1 236.2 212 227.7 207.4 221.2C200.9 212 191.1 206.8 180.2 204.2C172.6 202.4 165.4 203.8 158 207.2C145.7 212.9 137.5 221.8 132.9 234.4C130.6 240.8 131.4 247 132.6 253.5C133.8 260.3 137 262.6 143.7 261.4C152 259.9 160.2 258.5 168.7 258.4C180.6 258.3 192.4 259.2 203.9 262.3C208.1 263.4 210.3 262.1 211.2 257.9C212.1 253.2 213.2 248.7 213 242.2ZM317.5 252.2C318.7 240.7 309.7 232.6 301.1 229.1C293.5 225.9 285.4 223.3 277 222.5C268.3 221.7 259.7 221 251 222.6C242.7 224.1 238.7 228.2 237.1 236.2C236.3 240.5 237.4 244.6 237.4 248.7C237.4 253.7 239.2 255.5 244.2 255.7C251.7 256.1 259.2 256.5 266.7 256.4C274.6 256.3 282.3 257.6 289.9 259C296 260.1 302.3 260.7 307.7 264.5C311.2 267 313.4 265.6 315.3 261.4C316.7 258.3 318 255.3 317.5 252.2ZM285 505.3C284.4 507.2 285.1 508.1 285.6 509C294 523.6 302.8 537.8 310.3 553C319.4 571.6 328.1 590.4 335.6 609.7C338.6 617.4 337.8 624.6 331.2 630.2C322.2 638 314.3 646.9 305.7 655.1C302.6 658 302.7 660.9 304.9 664.3C307.3 668 310.6 670.6 314.1 673.2C320.7 678.3 327.1 683.8 333 689.8C334.8 691.6 337.4 693.6 339.5 690.8C341.5 688.1 338.6 686.7 336.8 685.2C333.6 682.7 329.3 681.8 326.7 678.6C322.8 674 317.6 670.4 315.1 664.6C314.7 663.7 313.8 662.9 313 662.3C307.6 658 307.5 657.6 312.6 652.8C320.4 645.5 328.4 638.5 336 631C341.4 625.7 343.4 619.3 340.6 611.6C338.5 605.8 335.3 600.5 333.4 594.6C327.6 577.3 318.7 561.4 310.7 545.1C306.9 537.4 302.5 530.1 298 522.8C294.3 516.8 290.9 510.4 285 505.3ZM565.4 755.1C565.7 757.7 567.9 759.4 570.7 758.7C575.8 757.4 578.2 753.5 579.4 748.8C580.5 744.7 579.6 741.1 576.3 738.3C572.2 734.9 568.3 731.5 566.3 726.2C564.3 735.8 564.2 745.5 565.4 755.1Z" fill="#000"/>
</svg>
